<?xml version="1.0" encoding="utf-8"?>
<!-- Generator: Adobe Illustrator 19.0.1, SVG Export Plug-In . SVG Version: 6.00 Build 0)  -->
<?xml-stylesheet type="text/css" href="../animate.css" ?>
<svg version="1.1" id="Layer_1" xmlns="http://www.w3.org/2000/svg" xmlns:xlink="http://www.w3.org/1999/xlink" x="0px" y="0px"
	 viewBox="0 0 287.9 54.9" style="enable-background:new 0 0 287.9 54.9;" xml:space="preserve">
<style type="text/css">
	.st0{fill:#00BFA5;}
	.st1{fill:#DAE4E5;}
</style>
<g>
	<path class="st0" d="M0,7.6h13.4c1.6,0,3.3,0.2,5.1,0.6c1.8,0.4,3.4,1,4.9,1.9c1.5,0.9,2.7,2.2,3.6,3.8c0.9,1.6,1.4,3.6,1.4,6
		c0,2.1-0.4,3.9-1.1,5.4c-0.8,1.5-1.8,2.8-3.1,3.8c-1.3,1-2.8,1.7-4.5,2.2C18,31.8,16.2,32,14.4,32h-10v22.1H0V7.6z M4.3,28.1h9.8
		c1.2,0,2.4-0.1,3.6-0.4c1.2-0.3,2.2-0.7,3.1-1.4c0.9-0.6,1.7-1.5,2.2-2.5c0.6-1,0.9-2.3,0.9-3.9c0-1.5-0.3-2.8-0.9-3.8
		c-0.6-1.1-1.4-1.9-2.3-2.6c-0.9-0.7-2-1.2-3.2-1.5c-1.2-0.3-2.5-0.5-3.7-0.5H4.3V28.1z"/>
	<path class="st0" d="M37.2,23.8h3.9v30.3h-3.9V23.8z"/>
	<path class="st0" d="M79.1,48.4c-1.5,2.3-3.4,4-5.7,5c-2.3,1-4.7,1.5-7.4,1.5c-2.3,0-4.4-0.4-6.3-1.2c-1.9-0.8-3.5-1.9-4.9-3.3
		c-1.4-1.4-2.4-3.1-3.1-5.1c-0.7-1.9-1.1-4.1-1.1-6.5c0-2.3,0.4-4.4,1.1-6.3c0.7-1.9,1.8-3.6,3.1-5c1.4-1.4,3-2.5,4.8-3.3
		c1.8-0.8,3.9-1.2,6.1-1.2c2.3,0,4.4,0.4,6.1,1.2c1.8,0.8,3.3,1.9,4.5,3.2c1.2,1.3,2.1,2.9,2.7,4.6c0.6,1.7,0.9,3.4,0.9,5.2v2.8
		H54.5c0,0.8,0.2,1.9,0.5,3.2c0.3,1.3,0.9,2.5,1.8,3.8c0.9,1.2,2,2.3,3.5,3.2c1.5,0.9,3.4,1.3,5.7,1.3c2,0,4-0.5,5.8-1.4
		c1.9-1,3.3-2.3,4.3-3.9L79.1,48.4z M76.1,36.4c0-1.4-0.3-2.6-0.8-3.8c-0.5-1.2-1.3-2.2-2.2-3.1c-0.9-0.9-2.1-1.6-3.3-2.1
		c-1.3-0.5-2.7-0.8-4.1-0.8c-2.1,0-3.9,0.4-5.3,1.3c-1.4,0.9-2.5,1.9-3.4,3c-0.8,1.1-1.4,2.2-1.8,3.3c-0.4,1.1-0.5,1.8-0.5,2.2H76.1
		z"/>
	<path class="st0" d="M114.2,49.6c-1.5,1.8-3.2,3.1-5.1,4c-1.9,0.9-3.9,1.3-6.1,1.3c-2.3,0-4.5-0.4-6.4-1.2c-2-0.8-3.7-1.9-5.1-3.3
		c-1.4-1.4-2.5-3.1-3.3-5.1c-0.8-1.9-1.2-4.1-1.2-6.4c0-2.3,0.4-4.5,1.2-6.4c0.8-1.9,1.9-3.6,3.3-5.1c1.4-1.4,3.1-2.5,5.1-3.3
		s4.1-1.2,6.4-1.2c2.2,0,4.3,0.5,6.2,1.4s3.6,2.2,5.1,3.9l-3.2,2.4c-1.1-1.3-2.4-2.3-3.7-3c-1.4-0.7-2.8-1.1-4.4-1.1
		c-1.8,0-3.5,0.3-5,1c-1.5,0.7-2.8,1.5-3.8,2.7c-1,1.1-1.8,2.4-2.4,3.9c-0.5,1.5-0.8,3.1-0.8,4.8c0,1.7,0.3,3.3,0.8,4.8
		c0.5,1.5,1.3,2.8,2.4,3.9c1.1,1.1,2.3,2,3.8,2.7c1.5,0.7,3.1,1,5,1c1.7,0,3.2-0.4,4.6-1.1c1.4-0.8,2.6-1.8,3.6-3.1L114.2,49.6z"/>
	<path class="st0" d="M147.1,48.4c-1.5,2.3-3.4,4-5.7,5c-2.3,1-4.7,1.5-7.4,1.5c-2.3,0-4.4-0.4-6.3-1.2c-1.9-0.8-3.5-1.9-4.9-3.3
		c-1.4-1.4-2.4-3.1-3.1-5.1c-0.7-1.9-1.1-4.1-1.1-6.5c0-2.3,0.4-4.4,1.1-6.3c0.7-1.9,1.8-3.6,3.1-5c1.4-1.4,3-2.5,4.8-3.3
		c1.8-0.8,3.9-1.2,6.1-1.2c2.3,0,4.4,0.4,6.1,1.2c1.8,0.8,3.3,1.9,4.5,3.2c1.2,1.3,2.1,2.9,2.7,4.6c0.6,1.7,0.9,3.4,0.9,5.2v2.8
		h-25.5c0,0.8,0.2,1.9,0.5,3.2c0.3,1.3,0.9,2.5,1.8,3.8c0.9,1.2,2,2.3,3.5,3.2c1.5,0.9,3.4,1.3,5.7,1.3c2,0,4-0.5,5.8-1.4
		c1.9-1,3.3-2.3,4.3-3.9L147.1,48.4z M144.1,36.4c0-1.4-0.3-2.6-0.8-3.8c-0.5-1.2-1.3-2.2-2.2-3.1c-0.9-0.9-2.1-1.6-3.3-2.1
		c-1.3-0.5-2.7-0.8-4.1-0.8c-2.1,0-3.9,0.4-5.3,1.3c-1.4,0.9-2.5,1.9-3.4,3c-0.8,1.1-1.4,2.2-1.8,3.3c-0.4,1.1-0.5,1.8-0.5,2.2
		H144.1z"/>
	<path class="st0" d="M156.8,32.3c0-0.6,0-1.3-0.1-2.1c0-0.8-0.1-1.6-0.1-2.5c0-0.8-0.1-1.6-0.1-2.3c0-0.7-0.1-1.3-0.1-1.7h3.9
		c0,1.1,0.1,2.2,0.1,3.3c0,1,0.1,1.7,0.2,2h0.2c0.8-1.7,2.1-3.1,3.9-4.3c1.8-1.2,4-1.8,6.4-1.8c2,0,3.8,0.5,5.5,1.5
		c1.7,1,2.9,2.7,3.6,5c1-2.3,2.4-3.9,4.3-5c1.9-1,3.9-1.6,6-1.6c2.4,0,4.3,0.4,5.8,1.1c1.5,0.7,2.7,1.7,3.5,2.9
		c0.9,1.2,1.4,2.6,1.8,4.2s0.5,3.2,0.5,4.9v18h-3.9V36.2c0-1.2-0.1-2.4-0.3-3.6c-0.2-1.2-0.6-2.2-1.1-3.1c-0.5-0.9-1.3-1.7-2.3-2.2
		c-1-0.5-2.3-0.8-3.8-0.8c-1.8,0-3.3,0.3-4.5,1c-1.2,0.7-2.1,1.5-2.8,2.6c-0.7,1-1.2,2.2-1.4,3.4c-0.3,1.2-0.4,2.4-0.4,3.5v17.1
		h-3.9V35.8c0-2.8-0.5-5.1-1.5-6.8c-1-1.7-2.6-2.6-4.8-2.6c-1.4,0-2.8,0.3-4.1,0.8c-1.3,0.5-2.4,1.3-3.3,2.3c-0.9,1-1.7,2.3-2.2,3.9
		c-0.5,1.6-0.8,3.4-0.8,5.5v15.2h-3.9V32.3z"/>
	<path class="st0" d="M239.5,48.4c-1.5,2.3-3.4,4-5.7,5c-2.3,1-4.7,1.5-7.4,1.5c-2.3,0-4.4-0.4-6.3-1.2c-1.9-0.8-3.5-1.9-4.9-3.3
		c-1.4-1.4-2.4-3.1-3.1-5.1c-0.7-1.9-1.1-4.1-1.1-6.5c0-2.3,0.4-4.4,1.1-6.3c0.7-1.9,1.8-3.6,3.2-5c1.4-1.4,3-2.5,4.8-3.3
		c1.8-0.8,3.9-1.2,6.1-1.2c2.3,0,4.4,0.4,6.1,1.2c1.8,0.8,3.3,1.9,4.5,3.2c1.2,1.3,2.1,2.9,2.7,4.6c0.6,1.7,0.9,3.4,0.9,5.2v2.8H215
		c0,0.8,0.2,1.9,0.5,3.2c0.3,1.3,0.9,2.5,1.8,3.8c0.9,1.2,2,2.3,3.5,3.2c1.5,0.9,3.4,1.3,5.7,1.3c2,0,4-0.5,5.8-1.4
		c1.9-1,3.3-2.3,4.3-3.9L239.5,48.4z M236.5,36.4c0-1.4-0.3-2.6-0.8-3.8c-0.5-1.2-1.3-2.2-2.2-3.1c-0.9-0.9-2.1-1.6-3.3-2.1
		c-1.3-0.5-2.7-0.8-4.1-0.8c-2.1,0-3.9,0.4-5.3,1.3c-1.4,0.9-2.5,1.9-3.4,3c-0.8,1.1-1.4,2.2-1.8,3.3c-0.4,1.1-0.5,1.8-0.5,2.2
		H236.5z"/>
	<path class="st0" d="M272.8,41.4c0,1.5,0,2.8,0,4c0,1.2,0.1,2.3,0.1,3.3c0,1,0.1,1.9,0.2,2.8c0.1,0.9,0.2,1.8,0.3,2.6h-3.7
		c-0.3-1.5-0.4-3.1-0.4-4.9h-0.1c-1.1,2-2.5,3.4-4.2,4.3c-1.7,0.9-3.8,1.4-6.4,1.4c-1.3,0-2.6-0.2-3.9-0.5c-1.3-0.3-2.4-0.9-3.4-1.6
		c-1-0.7-1.8-1.7-2.5-2.8c-0.6-1.1-1-2.5-1-4.1c0-2.3,0.6-4.2,1.8-5.5c1.2-1.4,2.6-2.4,4.4-3.1c1.7-0.7,3.6-1.1,5.5-1.3
		c1.9-0.2,3.7-0.3,5.2-0.3h4.6v-1.8c0-2.6-0.8-4.5-2.4-5.6c-1.6-1.1-3.7-1.7-6.1-1.7c-3.5,0-6.6,1.1-9.3,3.4l-2.3-2.7
		c1.4-1.4,3.2-2.5,5.4-3.2c2.1-0.7,4.2-1.1,6.2-1.1c3.7,0,6.6,0.9,8.8,2.6c2.2,1.7,3.3,4.5,3.3,8.4V41.4z M264.9,38.9
		c-1.7,0-3.3,0.1-4.8,0.3c-1.6,0.2-3,0.6-4.2,1.1c-1.2,0.5-2.2,1.2-3,2.1c-0.7,0.9-1.1,2-1.1,3.3c0,0.9,0.2,1.7,0.6,2.5
		c0.4,0.7,1,1.3,1.6,1.8s1.4,0.8,2.2,1.1c0.8,0.2,1.6,0.4,2.5,0.4c2.1,0,3.8-0.3,5.2-0.9c1.4-0.6,2.4-1.4,3.2-2.4s1.4-2.1,1.7-3.3
		c0.3-1.2,0.5-2.5,0.5-3.8v-2H264.9z"/>
	<path class="st0" d="M284,4.5h3.9v49.6H284V4.5z"/>
</g>
<g>
	<path class="st1 animated bounce" d="M44.1,12.6c0,1.4-0.5,2.5-1.4,3.5c-1,1-2.1,1.5-3.5,1.5c-1.4,0-2.5-0.5-3.5-1.5c-1-1-1.4-2.1-1.4-3.5
		c0-1.4,0.5-2.5,1.4-3.5c1-1,2.1-1.5,3.5-1.5c1.4,0,2.5,0.5,3.5,1.5C43.6,10.1,44.1,11.2,44.1,12.6z M42.8,12.6c0-1-0.4-1.8-1.1-2.6
		C41,9.3,40.2,9,39.2,9c-1,0-1.8,0.4-2.5,1.1c-0.7,0.7-1.1,1.6-1.1,2.6s0.4,1.9,1.1,2.6c0.7,0.7,1.5,1.1,2.5,1.1
		c1,0,1.8-0.4,2.5-1.1C42.4,14.4,42.8,13.6,42.8,12.6z M42.4,12.6c0,0.9-0.3,1.7-0.9,2.3c-0.6,0.6-1.4,1-2.3,1c-0.9,0-1.7-0.3-2.3-1
		c-0.6-0.6-0.9-1.4-0.9-2.3c0-0.9,0.3-1.7,0.9-2.3c0.6-0.6,1.4-1,2.3-1c0.9,0,1.7,0.3,2.3,1C42.1,10.9,42.4,11.7,42.4,12.6z"/>
</g>
</svg>
